<?xml version="1.0" encoding="utf-8" ?><svg xmlns="http://www.w3.org/2000/svg" xmlns:xlink="http://www.w3.org/1999/xlink" width="1254" height="1254" viewBox="0 0 1254 1254"><path fill="#63341C" d="M413.684 143.719C433.164 142.098 455.782 142.898 475.211 143.921C483.051 144.334 494.088 144.938 501.614 146.22C512.012 147.409 596.317 158.224 595.03 172.257C596.323 183.378 593.985 195.245 593.329 206.499C591.869 231.553 591.157 256.993 589.267 281.958C589.025 285.39 588.839 289.13 588.439 292.521C587.837 325.226 585.44 359.926 584.208 392.911L582.946 429.234C582.855 432.204 582.886 442.745 582.544 445.032L579.485 571.62C579.199 590.859 579.86 610.168 579.764 629.425C579.458 691.103 574.532 783.666 598.449 839.947C610.52 868.354 636.689 895.151 657.861 917.01C681.922 941.85 707.781 964.268 739.517 978.695C789.312 1001.33 844.518 1005.49 896.512 1020.84C907.413 1024.06 920.713 1027.47 930.448 1033.33C935.659 1036.48 938.825 1041.52 940.926 1047.07C941.615 1051.21 942.16 1054.02 943.228 1058.07C943.335 1063.77 941.059 1065.89 936.449 1069.03C931.162 1072.03 925.966 1073.56 920.002 1074.72C904.703 1077.04 889.466 1079.82 874.08 1081.63C869.859 1082.12 861.587 1083.56 857.604 1083.69C855.268 1084.13 839.83 1085.78 839.391 1086.17L839.964 1086.47C850.346 1086.06 861.455 1085.1 871.669 1085.07C880.823 1086.73 887.881 1089.37 897.184 1088.83C898.813 1089.19 900.202 1089.25 901.276 1090.43L901.153 1090.1L900.633 1090.99C899.686 1091.23 896.342 1091.87 895.953 1092.12C870.317 1092.33 844.94 1094.14 819.18 1094.21C794.366 1095.97 757.832 1096.2 732.786 1095.34C725.931 1095.85 712.245 1095.47 704.908 1095.48L645.466 1095.38C637.777 1095.45 629.992 1095.36 622.294 1095.33C609.012 1095.94 595.087 1093.86 581.684 1093.64L485.71 1091.8C476.507 1091.69 438.098 1092.11 431.611 1090.5C418.716 1090.66 405.821 1090.27 392.96 1089.32C390.007 1088.27 388.647 1087.91 387.386 1084.81L386.536 1081.32L386.046 1078.27C385.026 1075.33 383.386 1067.34 382.163 1063.44C377.396 1048.24 371.55 1038.97 362.068 1026.68C358.094 1021.97 354.08 1017.29 350.027 1012.65C345.594 1007.61 346.005 1005.05 344.35 998.93C330.69 948.372 351.727 898.143 361.492 849.108C364.874 832.123 365.548 811.315 365.812 794.276C365.29 736.507 357.463 680.366 349.681 623.27C345.313 591.238 341.233 559.167 337.44 527.061C335.405 510.34 332.554 491.414 331.208 474.866C330.112 469.404 329.257 458.947 328.665 453.131C327.318 439.903 325.775 425.783 325.03 412.524C322.81 400.522 321.104 370.923 320.206 358.341C317.508 318.583 315.285 278.794 313.538 238.982L311.232 194.759C310.713 184.452 309.895 172.832 310.756 162.659C326.653 150.842 392.126 144.659 413.684 143.719ZM598.651 1079.58C591.71 1074.64 582.978 1071.14 575.316 1067.35C548.677 1054.18 487.694 1025.91 458.251 1031.31C453.365 1032.21 448.922 1033.94 446.091 1038.23C439.944 1047.54 442.564 1067.24 444.906 1077.67C445.164 1078.82 445.155 1079.6 446.093 1080.33C471.28 1078.91 505.359 1080.29 531.308 1080.39C545.915 1080.55 560.523 1080.52 575.129 1080.31C582.524 1080.18 591.645 1079.45 598.651 1079.58Z"/><path fill="#63341C" d="M476.553 1023.68C480.573 1024.68 483.902 1025.49 487.982 1026.18L488.837 1026.6C502.701 1029 525.27 1035.91 538.328 1041.21C546.875 1044.53 557.56 1048.38 565.325 1053.03C584.311 1061.88 609.535 1075.37 629.523 1079.88C649.656 1084.43 678.122 1083.56 698.944 1083.33C746.29 1082.8 793.585 1080.02 840.666 1074.98C865.594 1072.46 891.863 1069.63 916.481 1065.37C918.602 1064.36 924.029 1063.62 926.465 1063.26C928.989 1064.38 929.146 1064.31 931.975 1064.26L933.598 1063.12L934.524 1063.3C935.098 1065.68 935.015 1066.95 936.449 1069.03C931.162 1072.03 925.966 1073.56 920.002 1074.72C904.703 1077.04 889.466 1079.82 874.08 1081.63C869.859 1082.12 861.587 1083.56 857.604 1083.69C855.268 1084.13 839.83 1085.78 839.391 1086.17L839.964 1086.47C850.346 1086.06 861.455 1085.1 871.669 1085.07C880.823 1086.73 887.881 1089.37 897.184 1088.83C898.813 1089.19 900.202 1089.25 901.276 1090.43L901.153 1090.1L900.633 1090.99C899.686 1091.23 896.342 1091.87 895.953 1092.12C870.317 1092.33 844.94 1094.14 819.18 1094.21C794.366 1095.97 757.832 1096.2 732.786 1095.34C725.931 1095.85 712.245 1095.47 704.908 1095.48L645.466 1095.38C637.777 1095.45 629.992 1095.36 622.294 1095.33C609.012 1095.94 595.087 1093.86 581.684 1093.64L485.71 1091.8C476.507 1091.69 438.098 1092.11 431.611 1090.5C434.834 1089.89 435.837 1089.61 438.895 1088.43C433.396 1086.58 431.7 1087.26 430.221 1081.81C429.81 1081.15 429.248 1078.88 428.995 1077.99L429.692 1075.71C432.604 1072.76 424.821 1051.06 428.465 1041.64C436.794 1020.13 461.215 1033.63 475.305 1025.57L476.07 1025.12L476.553 1023.68ZM598.651 1079.58C591.71 1074.64 582.978 1071.14 575.316 1067.35C548.677 1054.18 487.694 1025.91 458.251 1031.31C453.365 1032.21 448.922 1033.94 446.091 1038.23C439.944 1047.54 442.564 1067.24 444.906 1077.67C445.164 1078.82 445.155 1079.6 446.093 1080.33C471.28 1078.91 505.359 1080.29 531.308 1080.39C545.915 1080.55 560.523 1080.52 575.129 1080.31C582.524 1080.18 591.645 1079.45 598.651 1079.58Z"/><defs><linearGradient id="gradient_0" gradientUnits="userSpaceOnUse" x1="522.24579" y1="1067.6199" x2="529.20782" y2="1106.1495"><stop offset="0" stop-color="#DCBFA5"/><stop offset="1" stop-color="#C39A81"/></linearGradient></defs><path fill="url(#gradient_0)" d="M446.093 1080.33C471.28 1078.91 505.359 1080.29 531.308 1080.39C545.915 1080.55 560.523 1080.52 575.129 1080.31C582.524 1080.18 591.645 1079.45 598.651 1079.58C601.144 1079.99 608.944 1083.8 611.511 1085.1C609.359 1086.66 607.665 1087.45 606.877 1089.87C608.054 1094.84 617.643 1092.79 622.474 1094.3L622.608 1094.96L622.294 1095.33C609.012 1095.94 595.087 1093.86 581.684 1093.64L485.71 1091.8C476.507 1091.69 438.098 1092.11 431.611 1090.5C434.834 1089.89 435.837 1089.61 438.895 1088.43C441.45 1087.59 442.1 1087.4 444.407 1086.11C446.537 1083.31 444.56 1082.93 446.093 1080.33Z"/><defs><linearGradient id="gradient_1" gradientUnits="userSpaceOnUse" x1="856.38916" y1="1076.4498" x2="847.65479" y2="1103.9672"><stop offset="0" stop-color="#BF9B83"/><stop offset="1" stop-color="#93674D"/></linearGradient></defs><path fill="url(#gradient_1)" d="M839.964 1086.47C850.346 1086.06 861.455 1085.1 871.669 1085.07C880.823 1086.73 887.881 1089.37 897.184 1088.83C898.813 1089.19 900.202 1089.25 901.276 1090.43L901.153 1090.1L900.633 1090.99C899.686 1091.23 896.342 1091.87 895.953 1092.12C870.317 1092.33 844.94 1094.14 819.18 1094.21L821.499 1093.42C818.901 1091.17 801.577 1091.79 795.542 1089.88C804.453 1088.07 819.012 1087.95 828.55 1086.98C832.456 1086.58 835.813 1087.34 839.964 1086.47Z"/><path fill="#885A48" d="M565.325 1053.03C584.311 1061.88 609.535 1075.37 629.523 1079.88C649.656 1084.43 678.122 1083.56 698.944 1083.33C746.29 1082.8 793.585 1080.02 840.666 1074.98C865.594 1072.46 891.863 1069.63 916.481 1065.37C916.353 1066.15 916.197 1066.14 915.686 1066.89C895.272 1071.27 860.46 1074.57 839.434 1076.65C791.821 1081.77 743.989 1084.59 696.105 1085.11C679.072 1085.2 661.611 1085.61 644.769 1083.8C622.926 1081.47 602.636 1072.56 583.182 1062.9C579.07 1060.86 567.002 1057 565.325 1053.03Z"/><path fill="#AD8467" d="M747.224 1092.96C759.896 1093.36 782.044 1090.95 795.542 1089.88C801.577 1091.79 818.901 1091.17 821.499 1093.42L819.18 1094.21C794.366 1095.97 757.832 1096.2 732.786 1095.34C735.925 1093.4 743.057 1093.36 747.224 1092.96Z"/><path fill="#3D1F15" d="M747.224 1092.96C750 1091.83 764.97 1089.64 768.179 1089.4C791.146 1087.63 814.136 1086.47 837.034 1083.77C841.79 1083.21 853.033 1080.52 857.27 1082.6L857.604 1083.69C855.268 1084.13 839.83 1085.78 839.391 1086.17L839.964 1086.47C835.813 1087.34 832.456 1086.58 828.55 1086.98C819.012 1087.95 804.453 1088.07 795.542 1089.88C782.044 1090.95 759.896 1093.36 747.224 1092.96Z"/><path fill="#AD8467" d="M611.511 1085.1C620.474 1088.59 629.342 1091.5 638.866 1092.85C641.322 1093.2 645.099 1093.57 647.16 1094.64L645.466 1095.38C637.777 1095.45 629.992 1095.36 622.294 1095.33L622.608 1094.96L622.474 1094.3C617.643 1092.79 608.054 1094.84 606.877 1089.87C607.665 1087.45 609.359 1086.66 611.511 1085.1Z"/><path fill="#71422E" d="M488.837 1026.6C502.701 1029 525.27 1035.91 538.328 1041.21C536.332 1042.13 532.343 1041.43 530.568 1040.47C521.196 1035.38 495.914 1032.13 488.837 1026.6Z"/><path fill="#4C2A1A" d="M931.975 1064.26L933.598 1063.12L934.524 1063.3C935.098 1065.68 935.015 1066.95 936.449 1069.03C931.162 1072.03 925.966 1073.56 920.002 1074.72C919.499 1068.01 925.651 1071.77 931.975 1064.26Z"/><path fill="#71422E" d="M476.553 1023.68C480.573 1024.68 483.902 1025.49 487.982 1026.18C485.407 1028.16 485.325 1028.77 482.896 1028.49C480.158 1026.22 479.541 1025.9 476.07 1025.12L476.553 1023.68Z"/><path fill="#4C2A1A" d="M428.995 1077.99L429.692 1075.71C432.011 1077.99 432.766 1079.75 432.943 1083.08L432.185 1083.67C431.44 1083.02 430.916 1082.52 430.221 1081.81C429.81 1081.15 429.248 1078.88 428.995 1077.99Z"/><path fill="#4C2A1A" d="M350.976 1010.53C349.805 1008.94 349.414 1008.72 349.154 1006.76L349.795 1005.97C352.046 1005.46 353.391 1006.21 355.605 1006.96C369.118 1008.17 382.139 1011.67 395.762 1013.21C414.941 1015.37 434.312 1017.32 453.432 1019.8C458.017 1020.39 472.33 1022.35 476.553 1023.68L476.07 1025.12L475.305 1025.57C461.215 1033.63 436.794 1020.13 428.465 1041.64C424.821 1051.06 432.604 1072.76 429.692 1075.71L428.995 1077.99C429.248 1078.88 429.81 1081.15 430.221 1081.81C431.7 1087.26 433.396 1086.58 438.895 1088.43C435.837 1089.61 434.834 1089.89 431.611 1090.5C418.716 1090.66 405.821 1090.27 392.96 1089.32C390.007 1088.27 388.647 1087.91 387.386 1084.81L386.536 1081.32L386.046 1078.27C385.026 1075.33 383.386 1067.34 382.163 1063.44C377.396 1048.24 371.55 1038.97 362.068 1026.68C358.094 1021.97 354.08 1017.29 350.027 1012.65L350.976 1010.53Z"/><path fill="#3D1F15" d="M386.046 1078.27C391.185 1075.52 413.945 1073.47 420.3 1075.7C424.036 1077.02 426.42 1075.65 428.995 1077.99C429.248 1078.88 429.81 1081.15 430.221 1081.81C431.7 1087.26 433.396 1086.58 438.895 1088.43C435.837 1089.61 434.834 1089.89 431.611 1090.5C418.716 1090.66 405.821 1090.27 392.96 1089.32C390.007 1088.27 388.647 1087.91 387.386 1084.81L386.536 1081.32L386.046 1078.27Z"/><path fill="#71422E" d="M350.976 1010.53C349.805 1008.94 349.414 1008.72 349.154 1006.76L349.795 1005.97C352.046 1005.46 353.391 1006.21 355.605 1006.96C360.109 1016.09 367.197 1021.2 373.019 1028.59C380.141 1037.63 390.981 1062.65 392.306 1073.59L391.084 1074.51C385.63 1073.68 384.551 1061.06 382.938 1056.41C378.979 1044.98 372.161 1035.47 364.627 1026.17L362.068 1026.68C358.094 1021.97 354.08 1017.29 350.027 1012.65L350.976 1010.53Z"/><path fill="#63341C" d="M350.976 1010.53C355.214 1015.21 360.868 1021.24 364.627 1026.17L362.068 1026.68C358.094 1021.97 354.08 1017.29 350.027 1012.65L350.976 1010.53Z"/><path fill="#3D1F15" d="M365.812 794.276C367.572 802.753 364.195 815.357 371.596 819.96C375.908 822.641 379.473 822.833 383.932 826.003L383.866 826.603C378.118 826.558 370.892 822.933 366.467 823.063C365.676 825.282 365.878 826.293 365.963 828.622C365.078 832.718 361.435 852.171 371.123 848.867C371.843 850.825 372.155 851.261 373.47 852.899C374.27 857.774 372.417 860.865 367.541 862.552L366.09 863.677C364.146 869.271 362.808 873.964 362.235 879.846C361.004 882.956 360.191 886.255 359.395 889.482C352.525 917.337 344.994 946.169 348.104 975.112C348.662 980.311 348.983 986.018 350.885 990.856C352.633 995.304 356.748 999.718 358.832 1003.9C367.872 1006.11 380.421 1006.97 389.89 1008.21L446.568 1015.8C457.085 1017.16 469.518 1018.17 479.45 1021.45L480.362 1021.74L480.906 1021.92C478.492 1016.13 471.173 990.274 472.23 984.757C475.287 989.571 478.839 1011.16 482.355 1020C492.198 1023.96 502.323 1025.8 512.487 1028.62C545.411 1037.75 575.342 1054.37 606.404 1068.17C630.984 1079.09 656.673 1080.61 683.137 1080.64C704.39 1080.67 725.717 1079.5 746.946 1078.51C795.005 1076.61 842.949 1072.46 890.622 1066.09C903.806 1064.28 927.586 1062.27 938.298 1055.17C938.975 1051.64 938.912 1050.01 940.926 1047.07C941.615 1051.21 942.16 1054.02 943.228 1058.07C943.335 1063.77 941.059 1065.89 936.449 1069.03C935.015 1066.95 935.098 1065.68 934.524 1063.3L933.598 1063.12L931.975 1064.26C929.146 1064.31 928.989 1064.38 926.465 1063.26C924.029 1063.62 918.602 1064.36 916.481 1065.37C891.863 1069.63 865.594 1072.46 840.666 1074.98C793.585 1080.02 746.29 1082.8 698.944 1083.33C678.122 1083.56 649.656 1084.43 629.523 1079.88C609.535 1075.37 584.311 1061.88 565.325 1053.03C557.56 1048.38 546.875 1044.53 538.328 1041.21C525.27 1035.91 502.701 1029 488.837 1026.6L487.982 1026.18C483.902 1025.49 480.573 1024.68 476.553 1023.68C472.33 1022.35 458.017 1020.39 453.432 1019.8C434.312 1017.32 414.941 1015.37 395.762 1013.21C382.139 1011.67 369.118 1008.17 355.605 1006.96C353.391 1006.21 352.046 1005.46 349.795 1005.97L349.154 1006.76C349.414 1008.72 349.805 1008.94 350.976 1010.53L350.027 1012.65C345.594 1007.61 346.005 1005.05 344.35 998.93C330.69 948.372 351.727 898.143 361.492 849.108C364.874 832.123 365.548 811.315 365.812 794.276Z"/><path fill="#71422E" d="M358.832 1003.9C342.339 1000.86 345.601 995.504 343.079 981.105C335.415 937.343 354.978 895.288 363.668 853.264C364.222 850.583 368.286 849.271 371.127 851.467C373.651 856.609 370.792 858.84 367.541 862.552L366.09 863.677C364.146 869.271 362.808 873.964 362.235 879.846C361.004 882.956 360.191 886.255 359.395 889.482C352.525 917.337 344.994 946.169 348.104 975.112C348.662 980.311 348.983 986.018 350.885 990.856C352.633 995.304 356.748 999.718 358.832 1003.9Z"/><path fill="#71422E" d="M926.465 1063.26C930.576 1062.35 940.912 1058.17 941.826 1058.25L942.072 1059.63L942.245 1059.27C943.128 1058.78 942.759 1059.15 943.228 1058.07C943.335 1063.77 941.059 1065.89 936.449 1069.03C935.015 1066.95 935.098 1065.68 934.524 1063.3L933.598 1063.12L931.975 1064.26C929.146 1064.31 928.989 1064.38 926.465 1063.26Z"/><path fill="#885A48" d="M443.536 151.32C456.533 150.127 468.926 150.516 481.874 151.597C486.536 151.986 499.67 153.658 503.76 153.435C506.307 156.373 513.519 158.159 517.511 159.823C505.273 159.119 486.58 156.929 474.176 157.621C473.595 157.653 472.373 158.779 471.883 159.229C471.508 159.578 471.141 159.935 470.781 160.299C468.808 160.722 469.133 161.056 467.847 160.465L468.449 158.912C467.313 157.689 462.868 157.286 461.288 157.544L460.902 158.372L462.057 160.918C459.973 160.327 458.646 158.371 456.715 156.623L456.053 156.838C452.185 157.128 436.385 156.6 434.065 154.241C436.021 151.488 440.476 151.56 443.536 151.32Z"/><path fill="#916758" d="M456.053 156.838C454.036 155.325 453.8 155.72 453.468 153.875C455.099 152.377 457.811 152.749 459.987 152.84C462.13 152.933 464.273 153.043 466.414 153.168L456.715 156.623L456.053 156.838Z"/><path fill="#4C2A1A" d="M457.085 144.796C468.287 146.473 482.446 146.204 494.657 147.723L492.928 149.494C496.952 150.084 509.891 151.625 512.744 153.509C511.349 154.993 505.692 153.572 503.76 153.435C499.67 153.658 486.536 151.986 481.874 151.597C468.926 150.516 456.533 150.127 443.536 151.32C429.656 150.548 414.862 149.917 401.028 150.701C400.131 150.752 400.427 150.719 399.643 149.954C408.66 146.986 418.918 148.674 428.225 147.02L424.835 146.54C426.652 146.136 435.523 146.447 438.116 146.267C444.406 145.83 450.806 145.486 457.085 144.796Z"/><path fill="#AD8467" d="M457.085 144.796C468.287 146.473 482.446 146.204 494.657 147.723L492.928 149.494C482.181 148.478 437.726 145.135 428.225 147.02L424.835 146.54C426.652 146.136 435.523 146.447 438.116 146.267C444.406 145.83 450.806 145.486 457.085 144.796Z"/><path fill="#4C2A1A" d="M588.439 292.521C587.837 325.226 585.44 359.926 584.208 392.911L582.946 429.234C582.855 432.204 582.886 442.745 582.544 445.032C580.099 418.292 584.968 391.585 583.693 366.746L583.367 368.286C583.107 360.395 585.341 298.529 588.439 292.521Z"/><path fill="#4C2A1A" d="M589.267 281.958C588.39 257.245 589.114 232.502 591.436 207.883C592 201.956 592.916 195.866 593.741 189.956C594.466 184.767 593.564 176.86 595.03 172.257C596.323 183.378 593.985 195.245 593.329 206.499C591.869 231.553 591.157 256.993 589.267 281.958Z"/><path fill="#71422E" d="M365.963 828.622C367.329 826.916 367.369 826.505 369.458 825.905C374.034 828.244 370.767 843.084 371.123 848.867C361.435 852.171 365.078 832.718 365.963 828.622Z"/><path fill="#3D1F15" d="M413.684 143.719C433.164 142.098 455.782 142.898 475.211 143.921C483.051 144.334 494.088 144.938 501.614 146.22C497.433 146.357 498.267 146.661 494.657 147.723C482.446 146.204 468.287 146.473 457.085 144.796C455.22 143.761 420.021 144.197 413.684 143.719Z"/><path fill="#4C2A1A" d="M325.03 412.524C328.256 416.931 332.117 468.368 331.208 474.866C330.112 469.404 329.257 458.947 328.665 453.131C327.318 439.903 325.775 425.783 325.03 412.524Z"/><path fill="#4C2A1A" d="M362.235 879.846C362.808 873.964 364.146 869.271 366.09 863.677L369.16 869.995C367.613 872.558 364.494 878.283 362.235 879.846Z"/><path fill="#885A48" d="M466.434 228.549C464.641 226.949 463.148 226.048 462.708 223.885C465.324 222.407 465.474 222.635 465.742 219.86L465.257 219.341C463.729 221.194 464.553 220.931 462.815 221.305C461.387 219.703 461.16 218.428 460.497 216.398C459.294 212.716 461.407 214.9 462.817 212.213C459.951 208.023 461.793 207.999 461.812 203.845C461.817 202.668 459.103 198.243 458.548 196.84C457.052 193.055 457.101 194.508 458.6 190.802C457.164 190.171 456.08 189.987 454.57 189.645L454.154 188.809C456.196 184.114 456.546 181.479 453.826 176.816L454.161 176.351C455.603 177.2 454.899 177.138 456.309 177.079C459.49 170.56 460.201 175.021 462.56 172.459C460.59 171.576 460.169 171.794 459.163 170.283C461.523 167.903 471.992 167.394 472.306 171.404C470.396 171.82 467.832 171.238 465.761 170.966C465.33 172.143 465.563 171.705 466.148 173.425C468.864 175.029 469.072 173.767 472.902 174.71C474.387 177.14 472.045 175.315 472.097 179.153C473.514 181.039 476.083 181.421 478.451 182.133C477.099 184.05 474.78 186.172 474.896 187.979L476.041 188.66L477.879 187.767L478.392 188.223C478.047 192.451 473.359 193.326 474.258 197.48C475.352 197.424 476.297 197.399 477.392 197.398C478.075 199.556 476.016 201.999 475.622 204.756C475.088 208.494 475.186 210.728 475.525 214.449C478.84 223.366 473.871 224.286 474.162 228.876C475.841 228.535 474.353 227.924 476.671 227.91C476.055 230.184 477.433 253.95 475.413 257.249C473.504 256.7 472.596 255.448 471.145 254.032L470.679 253.571C468.7 253.484 469.063 253.642 467.25 253.073L467.654 252.102L469.184 251.618C471.057 252.155 473.251 253.068 474.897 251.963C474.903 250.03 473.522 248.272 472.07 247.125C470.952 248.782 471.7 248.327 470.073 248.947C466.349 245.838 458.872 239.64 455.775 236.277L455.819 235.268C457.432 235.353 458.666 235.976 460.179 236.567C463.833 234.819 464.702 232.144 466.434 228.549Z"/><path fill="#71422E" d="M475.525 214.449C478.84 223.366 473.871 224.286 474.162 228.876C472.527 223.975 470.923 220.627 474.337 216.203L475.253 216.042L475.525 214.449Z"/><path fill="#63341C" d="M474.606 233.197C476.068 233.875 475.272 235.67 475.288 237.008C475.341 241.591 472.576 242.396 470.211 245.296L469.006 244.838C467.854 243.003 467.133 242.589 467.147 240.788L469.114 241.824L469.868 241.412C470.262 239.558 470.606 238.579 470.154 236.671C472.259 235.44 472.5 235.322 474.229 233.584L474.606 233.197Z"/><path fill="#885A48" d="M677.164 1021.63L677.584 1019.8C681.9 1019.5 685.535 1020.71 688.952 1023.36C691.661 1024.47 691.291 1023.99 694.685 1023.48L694.604 1024.24C692.367 1025.36 692.243 1024.97 691.143 1026.75C692.464 1028.83 694.753 1029.35 697.174 1029.98C700.778 1028.71 699.09 1027.31 701.009 1027.79C700.26 1029.4 699.888 1030 698.969 1031.46L699.3 1032.12C703.23 1032.2 704.428 1030.26 707.574 1031.08C709.523 1033.75 707.068 1033.12 709.191 1033.79C713.072 1032.86 716.697 1030.89 719.749 1033.55C722.527 1033.64 727.252 1033.11 729.218 1033.93L727.159 1035.4C728.285 1036.11 736.246 1034.53 740.259 1035.15C737.547 1035.97 731.958 1036.87 730.205 1038.12L730.51 1038.81C738.046 1039.34 749.885 1039.37 756.617 1040.38C748.96 1043.8 743.782 1040.75 735.578 1046L736.11 1047.23C738.833 1048.23 740.545 1048.77 743.042 1050.27C734.438 1051.69 732.633 1049.96 724.374 1049.34C723.844 1049.3 722.226 1050.66 721.749 1051.05C719.316 1049.29 720.299 1048.05 718.01 1046.9C716.967 1047.54 715.911 1048.16 714.843 1048.75L713.914 1048.33C713.449 1046.54 713.542 1046.3 712.469 1044.84L710.084 1047.46C708.407 1047.61 705.911 1046.26 704.223 1045.51C702.974 1043.92 703.05 1043.43 702.779 1041.44L702.699 1040.81L702.092 1040.99L701.194 1043.49C699.076 1044.3 696.512 1044.44 694.227 1044.7C692.825 1044.83 691.317 1044.87 689.902 1044.94L689.079 1044.14L689.919 1042.23C687.306 1042.98 684.898 1043.95 682.253 1043.69L683.198 1042.12C681.189 1039.73 677.547 1042.33 675.318 1040.04L675.612 1039.2L678.04 1038.3C674.841 1037.25 667.619 1035.13 666.905 1031.61C668.234 1031 668.114 1031.1 669.321 1030.27L668.599 1030.06L667.483 1029.71C664.822 1028.91 663.064 1028.84 662.374 1025.91C663.912 1024 663.381 1024.37 666.419 1023.77L667.344 1023.59C667.351 1023.34 667.357 1023.1 667.363 1022.85L667.364 1021.66C669.065 1020.92 668.51 1021.17 670.548 1021.16C674.097 1023.11 673.664 1023.12 677.164 1021.63Z"/><defs><linearGradient id="gradient_2" gradientUnits="userSpaceOnUse" x1="683.19543" y1="1020.2151" x2="681.7373" y2="1023.6147"><stop offset="0" stop-color="#885B4A"/><stop offset="1" stop-color="#5D2D14"/></linearGradient></defs><path fill="url(#gradient_2)" d="M677.164 1021.63L677.584 1019.8C681.9 1019.5 685.535 1020.71 688.952 1023.36C686.314 1028.71 680.549 1023.93 677.164 1021.63Z"/><path fill="#71422E" d="M689.919 1042.23C692.263 1041.68 692.973 1041.05 694.811 1041.75C694.751 1043.55 694.817 1042.96 694.227 1044.7C692.825 1044.83 691.317 1044.87 689.902 1044.94L689.079 1044.14L689.919 1042.23Z"/><path fill="#71422E" d="M394.308 501.538L395.766 502.669C398.682 517.885 397.116 538.558 401.99 553.114C401.246 553.92 400.519 554.743 399.812 555.583C400.869 571.049 402.045 589.583 403.661 604.871C403.982 606.631 404.776 608.866 405.025 610.569C405.758 615.569 408.044 623.507 406.637 628.226C406.519 628.62 406.028 629.842 405.91 630.157C408.92 635.369 409.405 634.895 406.76 640.619L408.159 648.328C408.404 649.644 409.521 661.869 409.236 661.51C413.526 665.877 409.496 667.357 410.091 670.698C412.058 681.75 411.759 692.822 412.728 703.782C413.862 716.606 415.415 729.274 415.238 742.297C416.464 748.455 418.828 775.008 418.029 781.11L416.914 781.737C416.514 788.084 417.756 795.48 417.568 802.306L417.415 802.942C416.1 799.671 414.814 781.199 414.463 776.846L410.39 725.991L400.984 612.228C400.08 601.621 393.854 539.349 395.803 535.254C393.963 533.458 392.555 512.781 393.724 510.776C394.753 507.728 394.395 504.802 394.308 501.538Z"/><path fill="#4C2A1A" d="M403.661 604.871C403.982 606.631 404.776 608.866 405.025 610.569C405.758 615.569 408.044 623.507 406.637 628.226C406.519 628.62 406.028 629.842 405.91 630.157C408.92 635.369 409.405 634.895 406.76 640.619L408.159 648.328C408.404 649.644 409.521 661.869 409.236 661.51C413.526 665.877 409.496 667.357 410.091 670.698C412.058 681.75 411.759 692.822 412.728 703.782C413.862 716.606 415.415 729.274 415.238 742.297C415.14 741.994 414.697 740.588 414.557 740.342C411.813 735.515 402.908 621.227 402.356 605.922L403.661 604.871Z"/><path fill="#3D1F15" d="M394.308 501.538L395.766 502.669C398.682 517.885 397.116 538.558 401.99 553.114C401.246 553.92 400.519 554.743 399.812 555.583C400.869 571.049 402.045 589.583 403.661 604.871L402.356 605.922C402.514 593.625 399.259 570.03 398.452 556.266C397.613 550.325 397.891 540.592 395.803 535.254C393.963 533.458 392.555 512.781 393.724 510.776C394.753 507.728 394.395 504.802 394.308 501.538Z"/><path fill="#71422E" d="M380.484 314.088C379.438 310.236 380.58 297.865 381.471 293.69C381.56 296.007 381.628 297.494 381.955 299.779L382.774 300.07L383.338 299.679C383.262 306.368 385.018 308.834 384.986 311.816C384.692 318.874 384.646 325.73 384.657 332.788C384.669 340.717 387.504 348.285 386.847 355.757C386.495 359.762 385.31 358.604 388.06 362.505C387.796 366.233 386.368 365.7 386.601 369.471C386.927 370.322 388.256 373.817 388.251 374.566C388.218 380.304 387.863 385.445 388.121 391.258C388.228 396.84 389.666 402.321 389.954 407.855C390.219 412.969 389.905 417.861 390.253 423.06C390.777 430.872 392.879 439.047 391.907 446.866C391.797 447.757 391.83 448.537 391.876 449.406C392.757 466.971 394.62 485.054 395.766 502.669L394.308 501.538C394.395 504.802 394.753 507.728 393.724 510.776C391.877 508.171 389.866 471.006 389.449 465.38C387.201 435.348 385.19 405.299 383.417 375.235C382.373 355.527 382.007 333.46 380.484 314.088Z"/><path fill="#3D1F15" d="M380.484 314.088C379.438 310.236 380.58 297.865 381.471 293.69C381.56 296.007 381.628 297.494 381.955 299.779L382.774 300.07L383.338 299.679C383.262 306.368 385.018 308.834 384.986 311.816C384.692 318.874 384.646 325.73 384.657 332.788C384.669 340.717 387.504 348.285 386.847 355.757C386.495 359.762 385.31 358.604 388.06 362.505C387.796 366.233 386.368 365.7 386.601 369.471L385.446 369.463C383.682 351.72 384.035 331.541 382.299 313.449L381.548 312.948L380.484 314.088Z"/><path fill="#3D1F15" d="M386.601 369.471C386.927 370.322 388.256 373.817 388.251 374.566C388.218 380.304 387.863 385.445 388.121 391.258C388.228 396.84 389.666 402.321 389.954 407.855C390.219 412.969 389.905 417.861 390.253 423.06C390.777 430.872 392.879 439.047 391.907 446.866C391.797 447.757 391.83 448.537 391.876 449.406L390.578 449.43C389.421 442.281 388.947 428.203 388.482 420.512L385.446 369.463L386.601 369.471Z"/><path fill="#3D1F15" d="M390.578 449.43L391.876 449.406C392.757 466.971 394.62 485.054 395.766 502.669L394.308 501.538C393.905 485.263 391.371 466.181 390.578 449.43Z"/><path fill="#885A48" d="M756.617 1040.38C760.99 1041.04 765.294 1040.51 768.972 1041.59C776.196 1040.31 817.166 1041.73 821.769 1044.46L822.192 1045.54C820.825 1046.76 821.429 1046.36 819.531 1046.85L818.592 1048.62L819.107 1049.28C823.586 1049.38 825.661 1045.43 829.229 1047.58C834.767 1050.92 842.632 1045.41 847.452 1048.27C845.842 1049.58 804.48 1052.2 797.832 1052.74C794.421 1053.66 794.485 1054.14 792.774 1051.18C789.039 1051.25 771.974 1055.02 769.835 1053.28C777.935 1052.09 785.448 1051.23 793.63 1049.91L793.754 1049.09C789.377 1048.53 774.303 1051.83 771.03 1050.13L767.299 1050.13C764.141 1049.54 763.304 1049.51 760.081 1049.58L758.89 1050.46C755.534 1049.35 746.268 1048.66 743.042 1050.27C740.545 1048.77 738.833 1048.23 736.11 1047.23L735.578 1046C743.782 1040.75 748.96 1043.8 756.617 1040.38Z"/><path fill="#916758" d="M756.617 1040.38C760.99 1041.04 765.294 1040.51 768.972 1041.59C773.939 1043.51 784.216 1043.76 789.873 1044.52C780.724 1047.38 772.047 1048.04 762.451 1048.06C762.199 1048.06 760.346 1049.38 760.081 1049.58L758.89 1050.46C755.534 1049.35 746.268 1048.66 743.042 1050.27C740.545 1048.77 738.833 1048.23 736.11 1047.23L735.578 1046C743.782 1040.75 748.96 1043.8 756.617 1040.38Z"/><path fill="#71422E" d="M797.781 1049.89C808.536 1047.07 808.598 1046.34 819.531 1046.85L818.592 1048.62L819.107 1049.28C823.586 1049.38 825.661 1045.43 829.229 1047.58C834.767 1050.92 842.632 1045.41 847.452 1048.27C845.842 1049.58 804.48 1052.2 797.832 1052.74C794.421 1053.66 794.485 1054.14 792.774 1051.18C789.039 1051.25 771.974 1055.02 769.835 1053.28C777.935 1052.09 785.448 1051.23 793.63 1049.91L793.754 1049.09C789.377 1048.53 774.303 1051.83 771.03 1050.13C775.702 1049.37 790.255 1048.09 794.692 1048.3C795.828 1050.04 795.657 1050.04 797.781 1049.89Z"/><path fill="#885A48" d="M644.63 1006.5C649.118 1007.21 651.409 1009.76 653.641 1009.73C654.978 1008.55 655.547 1007.78 657.3 1007.56C660.115 1008.75 661.801 1011.44 664.354 1013.83C665.261 1013.49 666.174 1013.17 667.094 1012.87L668.054 1013.69L667.62 1015.08C665.025 1017.74 660.364 1020.52 656.866 1021.74C651.8 1021.75 644.409 1022.12 639.837 1020.16C643.497 1019.33 647.42 1020.19 649.067 1016.77C647.229 1012.53 642.67 1015.84 640.17 1014.02C644.233 1011.04 643.55 1011.08 644.63 1006.5Z"/><path fill="#71422E" d="M692.208 1046.48C699.231 1047.43 713.848 1053.78 721.749 1051.05C722.226 1050.66 723.844 1049.3 724.374 1049.34C732.633 1049.96 734.438 1051.69 743.042 1050.27C746.268 1048.66 755.534 1049.35 758.89 1050.46L760.081 1049.58C763.304 1049.51 764.141 1049.54 767.299 1050.13C754.903 1057.39 736.914 1055.11 723.444 1053.54C710.881 1052.08 703.784 1053.41 692.208 1046.48Z"/><path fill="#885A48" d="M598.7 969.918C603.658 969.604 618.489 970.242 622.607 972.719L620.891 974.773C621.133 976.048 621.502 976.696 622.141 977.823C621.389 978.957 621.715 978.311 621.235 979.796C620.86 981.943 620.91 982.056 619.946 984.113C617.958 985.612 619.028 985.24 616.688 985.447C611.542 983.25 611.491 979.882 611.636 975.085C607.347 975.439 602.79 976.102 599.284 973.686C598.078 971.411 598.326 972.613 598.7 969.918Z"/><path fill="#71422E" d="M377.898 200.516L377.414 207.936L377.093 207.802C376.073 201.06 373.568 159.401 375.525 154.672L376.599 154.328C380.913 157.204 375.061 176.478 377.629 185.307C377.717 190.199 377.946 195.675 377.898 200.516Z"/><path fill="#4C2A1A" d="M417.568 802.306C417.756 795.48 416.514 788.084 416.914 781.737L418.029 781.11C418.619 788.158 419.342 805.202 422.926 810.136C423.081 812.129 422.694 811.592 421.977 812.831C419.842 816.519 420.258 831.159 421.169 834.654L420.153 835.192C420.046 836.566 420.247 837.247 419.649 838.089C418.531 828.409 420.17 811.8 417.568 802.306Z"/><path fill="#4C2A1A" d="M517.266 153.875C524.089 152.956 565.256 160.386 570.474 164.565C564.702 165.886 537.748 156.964 530.019 156.774C528.005 156.724 518.962 154.601 517.266 153.875Z"/><defs><linearGradient id="gradient_3" gradientUnits="userSpaceOnUse" x1="383.43854" y1="272.54205" x2="379.45691" y2="272.42593"><stop offset="0" stop-color="#462417"/><stop offset="1" stop-color="#231210"/></linearGradient></defs><path fill="url(#gradient_3)" d="M380.125 247.018L380.78 243.637C381.6 250.524 380.809 259.525 381.784 265.47C383.961 278.746 383.621 286.707 383.338 299.679L382.774 300.07L381.955 299.779C381.628 297.494 381.56 296.007 381.471 293.69C381.143 278.007 380.25 262.971 380.125 247.018Z"/><path fill="#3D1F15" d="M377.629 185.307L378.416 184.515C380.674 187.247 379.204 222.765 380.389 229.818C380.658 231.423 380.899 242.16 380.78 243.637L380.125 247.018C378.062 235.303 379.476 213.593 377.898 200.516C377.946 195.675 377.717 190.199 377.629 185.307Z"/><path fill="#885A48" d="M497.405 759.334C499.349 759.193 500.492 758.897 502.222 759.765C503.225 763.152 499.564 764.597 496.92 765.456C494.555 764.721 495.472 765.385 494.019 763.469C489.026 763.822 485.652 763.742 480.619 763.559C486.24 762.254 491.836 760.846 497.405 759.334Z"/><path fill="#885A48" d="M429.395 952.523C430.21 952.755 429.719 952.565 430.784 953.276L428.993 955.35C431.065 956.825 432.835 955.717 435.093 957.165C434.789 958.993 434.504 958.695 432.794 960.28C429.85 959.702 424.714 959.474 423.932 956.394C425.141 954.333 427.219 953.623 429.395 952.523Z"/><path fill="#3D1F15" d="M349.925 156.785L351.288 156.822L351.53 157.339C346.493 159.413 328.534 161.75 320.994 163.738L319.534 163.976C322.858 160.923 343.61 158.448 349.925 156.785Z"/><path fill="#3D1F15" d="M421.169 834.654L422.256 834.945C422.002 836.666 422.15 836.018 421.092 837.599C421.248 839.536 422.519 840.631 423.805 842.201L423.704 843.479C422.345 844.613 422.377 844.805 420.688 845.127L419.278 844.463C418.9 842.482 419.376 840.145 419.649 838.089C420.247 837.247 420.046 836.566 420.153 835.192L421.169 834.654Z"/><path fill="#4C2A1A" d="M570.861 164.792C575.659 164.318 583.954 167.133 587.614 170.2C583.105 170.401 574.85 167.049 570.861 164.792Z"/><path fill="#4C2A1A" d="M432.171 858.322C434.928 860.06 436.008 860.96 436.757 864.146C434.98 863.747 434.567 863.335 433.022 862.375C431.658 859.899 431.954 861.197 432.171 858.322Z"/><path fill="#3D1F15" d="M364.78 154.475C365.947 154.246 365.851 154.363 367.089 154.501C365.6 155.596 363.785 155.785 361.933 156.195C360.039 156.442 359.635 156.65 357.794 156.121C360.24 154.987 362.139 154.872 364.78 154.475Z"/><path fill="#4C2A1A" d="M451.191 894.969C453.97 896.468 454.512 900.509 455.252 903.397C452.96 901.209 452.206 897.983 451.191 894.969Z"/><path fill="#4C2A1A" d="M454.885 906.622C456.7 908.141 456.87 911.316 457.338 913.79C455.22 912.246 455.23 909.111 454.885 906.622Z"/><path fill="#DBBCA6" d="M386.536 1081.32L387.386 1084.81C388.647 1087.91 390.007 1088.27 392.96 1089.32C386.66 1089.79 375.484 1089.48 369.063 1088.75C363.813 1089.15 348.784 1086.56 343.401 1085.59C359.745 1083.32 370.003 1082.42 386.536 1081.32Z"/><path fill="#DCBDA5" d="M387.386 1084.81C388.647 1087.91 390.007 1088.27 392.96 1089.32C386.66 1089.79 375.484 1089.48 369.063 1088.75C370.949 1088.53 373.215 1088.43 375.135 1088.29L373.063 1086.33C374.242 1085.16 384.839 1084.95 387.386 1084.81Z"/><path fill="#DBBCA6" fill-opacity="0.71764708" d="M883.495 1084.95C897.734 1082.5 906.276 1083.94 920.268 1086.85L916.032 1087.88C916.039 1088.08 916.046 1088.28 916.053 1088.48C921.296 1089.25 925.888 1088.31 930.919 1088.77C925.838 1089.25 898.725 1092.31 895.953 1092.12C896.342 1091.87 899.686 1091.23 900.633 1090.99L901.153 1090.1L901.276 1090.43C900.202 1089.25 898.813 1089.19 897.184 1088.83C890.04 1085.91 892.331 1085.17 883.495 1084.95Z"/><path fill="#AD8467" fill-opacity="0.98039216" d="M871.669 1085.07C875.61 1084.96 879.553 1084.92 883.495 1084.95C892.331 1085.17 890.04 1085.91 897.184 1088.83C887.881 1089.37 880.823 1086.73 871.669 1085.07Z"/><path fill="#DCBDA5" fill-opacity="0.92941177" d="M920.268 1086.85L922.649 1086.91C926.593 1087.55 933.782 1086.96 935.921 1087.84L936.049 1088.53L930.919 1088.77C925.888 1088.31 921.296 1089.25 916.053 1088.48C916.046 1088.28 916.039 1088.08 916.032 1087.88L920.268 1086.85Z"/><path fill="#DBBCA6" fill-opacity="0.7764706" d="M922.649 1086.91C930.076 1086.78 937.688 1086.56 945.041 1087.68C942.386 1087.98 938.618 1088.54 936.049 1088.53L935.921 1087.84C933.782 1086.96 926.593 1087.55 922.649 1086.91Z"/></svg>